<svg xmlns="http://www.w3.org/2000/svg" width="68.054" height="36.896" viewBox="0 0 68.054 36.896"><g transform="matrix(0.695, -0.719, 0.719, 0.695, -906.536, 327.688)"><g transform="matrix(0.035, 0.999, -0.999, 0.035, 902.187, 430.491)"><path d="M6.46,61.956A4,4,0,0,1,3.4,55.378,108.446,108.446,0,0,0,16.456,35.215c-.925.068-1.835.1-2.719.1-5.1,0-9.223-1.113-12.25-3.308A13.385,13.385,0,0,1-3.936,21.656,27.282,27.282,0,0,1,1.581,3.078,27.572,27.572,0,0,1,8.348-3.393,4,4,0,0,1,10.468-4a3.984,3.984,0,0,1,1.441.269,27.5,27.5,0,0,1,8.433,5.617,26.063,26.063,0,0,1,5.492,7.568,26.953,26.953,0,0,1,2.54,11.463,36.872,36.872,0,0,1-2.812,13.31,80.6,80.6,0,0,1-6.3,12.565A117.081,117.081,0,0,1,9.518,60.536,3.993,3.993,0,0,1,6.46,61.956Zm13.246-29.1-.7,1.6c-5.04,11.433-13.979,22.1-14.069,22.208A2,2,0,0,0,7.99,59.246a117.008,117.008,0,0,0,9.556-13.491,78.617,78.617,0,0,0,6.149-12.248,34.919,34.919,0,0,0,2.678-12.575,24.969,24.969,0,0,0-2.345-10.619,24.07,24.07,0,0,0-5.074-6.988,25.772,25.772,0,0,0-7.766-5.191A1.992,1.992,0,0,0,10.468-2a2,2,0,0,0-1.06.3A25.736,25.736,0,0,0-1.94,21.525a11.446,11.446,0,0,0,4.6,8.865c2.679,1.943,6.405,2.928,11.076,2.928a36.7,36.7,0,0,0,4.233-.255Zm-6-3.562h0c-3.811,0-6.738-.724-8.7-2.151a7.388,7.388,0,0,1-2.95-5.884A21.386,21.386,0,0,1,4.827,9.023a23.076,23.076,0,0,1,5.338-6.316l.52-.426.591.321a20.723,20.723,0,0,1,11.1,18.364,25.89,25.89,0,0,1-.994,6.9l-.161.595-.6.124A36.242,36.242,0,0,1,13.7,29.3Zm-2.789-24.6a21.077,21.077,0,0,0-4.351,5.322A19.42,19.42,0,0,0,4.047,21.13a5.442,5.442,0,0,0,2.13,4.4C7.769,26.686,10.371,27.3,13.7,27.3a34.1,34.1,0,0,0,5.9-.551,23.2,23.2,0,0,0,.767-5.765A18.291,18.291,0,0,0,16.459,9.5,20.41,20.41,0,0,0,10.914,4.695Z" transform="translate(45.67 0) rotate(52)" fill="#fff"/><path d="M17.847,18.1a3.984,3.984,0,0,1-2.2-.664A136.909,136.909,0,0,1-2.795,2.862a4,4,0,0,1-.068-5.655A3.969,3.969,0,0,1,0-4,3.979,3.979,0,0,1,2.793-2.863,131.639,131.639,0,0,0,20.055,10.759,4,4,0,0,1,17.847,18.1ZM0-2a1.985,1.985,0,0,0-1.432.6A2,2,0,0,0-1.4,1.431,134.671,134.671,0,0,0,16.746,15.764a2,2,0,0,0,2.206-3.337A133.462,133.462,0,0,1,1.4-1.431,1.99,1.99,0,0,0,0-2Z" transform="translate(17.703 29.424) rotate(52)" fill="#fff"/></g></g></svg>