<svg xmlns="http://www.w3.org/2000/svg" width="65.919" height="34.762" viewBox="0 0 65.919 34.762"><g transform="matrix(0.695, -0.719, 0.719, 0.695, -907.603, 326.621)"><g transform="matrix(0.035, 0.999, -0.999, 0.035, 902.187, 430.491)"><path d="M6.46,60.956a3,3,0,0,1-2.292-4.934c.124-.147,8.959-10.717,13.918-21.967-4.552.531-11.314.551-16.012-2.856A12.415,12.415,0,0,1-2.938,21.59C-3.986,5.681,8.352-2.216,8.878-2.544a3,3,0,0,1,2.67-.254c.64.247,15.683,6.256,15.825,23.723C27.507,37.474,9.52,58.984,8.754,59.891A2.993,2.993,0,0,1,6.46,60.956ZM10.8,3.48A20.984,20.984,0,0,0,3.049,21.2a6.448,6.448,0,0,0,2.54,5.141c3.831,2.785,11.266,2,14.825,1.271a24.877,24.877,0,0,0,.959-6.635A19.729,19.729,0,0,0,10.8,3.48Z" transform="translate(45.67 0) rotate(52)" fill="#fff"/><path d="M17.847,17.1a2.986,2.986,0,0,1-1.652-.5A135.786,135.786,0,0,1-2.1,2.146a3,3,0,0,1-.051-4.241A3,3,0,0,1,2.1-2.147,132.3,132.3,0,0,0,19.5,11.593a3,3,0,0,1-1.657,5.5Z" transform="translate(17.703 29.424) rotate(52)" fill="#fff"/></g></g></svg>